<mxfile host="Electron" modified="2023-04-09T01:45:55.487Z" agent="Mozilla/5.0 (X11; Linux x86_64) AppleWebKit/537.36 (KHTML, like Gecko) draw.io/21.1.2 Chrome/106.0.5249.199 Electron/21.4.3 Safari/537.36" etag="ZbowhYdiZm_AUNJ17Ftj" version="21.1.2" type="device" pages="3">
  <diagram name="Algorithm" id="luFUxlbJYmTm9VymixF8">
    <mxGraphModel dx="933" dy="1020" grid="1" gridSize="10" guides="1" tooltips="1" connect="1" arrows="1" fold="1" page="1" pageScale="1" pageWidth="850" pageHeight="1100" math="0" shadow="0">
      <root>
        <mxCell id="0" />
        <mxCell id="1" parent="0" />
        <mxCell id="JZ4hTgmu9QeBeIveG_Wp-40" value="" style="rounded=1;whiteSpace=wrap;html=1;fillColor=none;fontColor=#ffffff;strokeColor=#432D57;" vertex="1" parent="1">
          <mxGeometry x="230" y="1310" width="220" height="140" as="geometry" />
        </mxCell>
        <mxCell id="JZ4hTgmu9QeBeIveG_Wp-39" value="" style="rounded=1;whiteSpace=wrap;html=1;fillColor=none;fontColor=#ffffff;strokeColor=#432D57;" vertex="1" parent="1">
          <mxGeometry x="180" y="285" width="630" height="440" as="geometry" />
        </mxCell>
        <mxCell id="AqKUAGnMmuNkZBFJkzyz-5" style="edgeStyle=orthogonalEdgeStyle;rounded=0;orthogonalLoop=1;jettySize=auto;html=1;exitX=1;exitY=0.5;exitDx=0;exitDy=0;entryX=0;entryY=0.5;entryDx=0;entryDy=0;sketch=1;curveFitting=1;jiggle=2;" parent="1" source="AqKUAGnMmuNkZBFJkzyz-1" target="AqKUAGnMmuNkZBFJkzyz-4" edge="1">
          <mxGeometry relative="1" as="geometry" />
        </mxCell>
        <mxCell id="AqKUAGnMmuNkZBFJkzyz-1" value="get RunConfig input from user" style="rounded=1;whiteSpace=wrap;html=1;sketch=1;curveFitting=1;jiggle=2;" parent="1" vertex="1">
          <mxGeometry x="160" y="170" width="120" height="60" as="geometry" />
        </mxCell>
        <mxCell id="AqKUAGnMmuNkZBFJkzyz-2" value="" style="ellipse;html=1;shape=startState;fillColor=#000000;strokeColor=#ff0000;sketch=1;curveFitting=1;jiggle=2;" parent="1" vertex="1">
          <mxGeometry x="90" y="185" width="30" height="30" as="geometry" />
        </mxCell>
        <mxCell id="AqKUAGnMmuNkZBFJkzyz-3" value="" style="edgeStyle=orthogonalEdgeStyle;html=1;verticalAlign=bottom;endArrow=open;endSize=8;strokeColor=#ff0000;rounded=0;entryX=0;entryY=0.5;entryDx=0;entryDy=0;sketch=1;curveFitting=1;jiggle=2;" parent="1" source="AqKUAGnMmuNkZBFJkzyz-2" target="AqKUAGnMmuNkZBFJkzyz-1" edge="1">
          <mxGeometry relative="1" as="geometry">
            <mxPoint x="185" y="335" as="targetPoint" />
          </mxGeometry>
        </mxCell>
        <mxCell id="AqKUAGnMmuNkZBFJkzyz-8" value="" style="edgeStyle=orthogonalEdgeStyle;rounded=0;orthogonalLoop=1;jettySize=auto;html=1;sketch=1;curveFitting=1;jiggle=2;" parent="1" source="AqKUAGnMmuNkZBFJkzyz-4" target="AqKUAGnMmuNkZBFJkzyz-7" edge="1">
          <mxGeometry relative="1" as="geometry" />
        </mxCell>
        <mxCell id="AqKUAGnMmuNkZBFJkzyz-4" value="loop over files in SearchDirs recursively" style="rounded=1;whiteSpace=wrap;html=1;shadow=0;spacing=7;sketch=1;curveFitting=1;jiggle=2;strokeColor=#007FFF;" parent="1" vertex="1">
          <mxGeometry x="320" y="170" width="120" height="60" as="geometry" />
        </mxCell>
        <mxCell id="AqKUAGnMmuNkZBFJkzyz-10" style="edgeStyle=orthogonalEdgeStyle;rounded=0;orthogonalLoop=1;jettySize=auto;html=1;exitX=1;exitY=0.5;exitDx=0;exitDy=0;entryX=0;entryY=0.5;entryDx=0;entryDy=0;sketch=1;curveFitting=1;jiggle=2;" parent="1" source="AqKUAGnMmuNkZBFJkzyz-7" target="AqKUAGnMmuNkZBFJkzyz-9" edge="1">
          <mxGeometry relative="1" as="geometry" />
        </mxCell>
        <mxCell id="AqKUAGnMmuNkZBFJkzyz-11" value="NO" style="edgeLabel;html=1;align=center;verticalAlign=middle;resizable=0;points=[];" parent="AqKUAGnMmuNkZBFJkzyz-10" vertex="1" connectable="0">
          <mxGeometry x="-0.25" y="-2" relative="1" as="geometry">
            <mxPoint x="7" y="-2" as="offset" />
          </mxGeometry>
        </mxCell>
        <mxCell id="AqKUAGnMmuNkZBFJkzyz-13" style="edgeStyle=orthogonalEdgeStyle;rounded=0;orthogonalLoop=1;jettySize=auto;html=1;exitX=0.5;exitY=1;exitDx=0;exitDy=0;shadow=0;entryX=0.5;entryY=0;entryDx=0;entryDy=0;sketch=1;curveFitting=1;jiggle=2;" parent="1" source="AqKUAGnMmuNkZBFJkzyz-7" target="AqKUAGnMmuNkZBFJkzyz-27" edge="1">
          <mxGeometry relative="1" as="geometry">
            <mxPoint x="560" y="285" as="targetPoint" />
          </mxGeometry>
        </mxCell>
        <mxCell id="AqKUAGnMmuNkZBFJkzyz-14" value="YES" style="edgeLabel;html=1;align=center;verticalAlign=middle;resizable=0;points=[];" parent="AqKUAGnMmuNkZBFJkzyz-13" vertex="1" connectable="0">
          <mxGeometry x="-0.1636" relative="1" as="geometry">
            <mxPoint as="offset" />
          </mxGeometry>
        </mxCell>
        <mxCell id="AqKUAGnMmuNkZBFJkzyz-7" value="hasNext&lt;br&gt;file" style="rhombus;whiteSpace=wrap;shadow=0;rounded=1;fillColor=none;fontColor=#FFFFFF;strokeColor=#B09500;fontStyle=0;labelBackgroundColor=none;labelBorderColor=none;html=1;fontSize=12;sketch=1;curveFitting=1;jiggle=2;" parent="1" vertex="1">
          <mxGeometry x="480" y="160" width="80" height="80" as="geometry" />
        </mxCell>
        <mxCell id="JZ4hTgmu9QeBeIveG_Wp-35" style="edgeStyle=orthogonalEdgeStyle;rounded=0;orthogonalLoop=1;jettySize=auto;html=1;exitX=1;exitY=0.5;exitDx=0;exitDy=0;entryX=0;entryY=0.5;entryDx=0;entryDy=0;sketch=1;curveFitting=1;jiggle=2;" edge="1" parent="1" source="AqKUAGnMmuNkZBFJkzyz-9" target="JZ4hTgmu9QeBeIveG_Wp-34">
          <mxGeometry relative="1" as="geometry" />
        </mxCell>
        <mxCell id="AqKUAGnMmuNkZBFJkzyz-9" value="generate report" style="rounded=1;whiteSpace=wrap;html=1;sketch=1;curveFitting=1;jiggle=2;" parent="1" vertex="1">
          <mxGeometry x="620" y="170" width="70" height="60" as="geometry" />
        </mxCell>
        <mxCell id="AqKUAGnMmuNkZBFJkzyz-21" style="edgeStyle=orthogonalEdgeStyle;rounded=0;orthogonalLoop=1;jettySize=auto;html=1;exitX=1;exitY=0.5;exitDx=0;exitDy=0;entryX=0;entryY=0.5;entryDx=0;entryDy=0;sketch=1;curveFitting=1;jiggle=2;" parent="1" source="AqKUAGnMmuNkZBFJkzyz-15" target="AqKUAGnMmuNkZBFJkzyz-16" edge="1">
          <mxGeometry relative="1" as="geometry" />
        </mxCell>
        <mxCell id="AqKUAGnMmuNkZBFJkzyz-30" value="YES" style="edgeLabel;html=1;align=center;verticalAlign=middle;resizable=0;points=[];" parent="AqKUAGnMmuNkZBFJkzyz-21" vertex="1" connectable="0">
          <mxGeometry x="-0.2929" relative="1" as="geometry">
            <mxPoint x="11" as="offset" />
          </mxGeometry>
        </mxCell>
        <mxCell id="AqKUAGnMmuNkZBFJkzyz-24" style="edgeStyle=orthogonalEdgeStyle;rounded=0;orthogonalLoop=1;jettySize=auto;html=1;exitX=0.5;exitY=1;exitDx=0;exitDy=0;entryX=0.5;entryY=0;entryDx=0;entryDy=0;sketch=1;curveFitting=1;jiggle=2;" parent="1" source="AqKUAGnMmuNkZBFJkzyz-15" target="AqKUAGnMmuNkZBFJkzyz-23" edge="1">
          <mxGeometry relative="1" as="geometry" />
        </mxCell>
        <mxCell id="AqKUAGnMmuNkZBFJkzyz-29" value="NO" style="edgeLabel;html=1;align=center;verticalAlign=middle;resizable=0;points=[];" parent="AqKUAGnMmuNkZBFJkzyz-24" vertex="1" connectable="0">
          <mxGeometry x="-0.3038" y="-2" relative="1" as="geometry">
            <mxPoint x="2" as="offset" />
          </mxGeometry>
        </mxCell>
        <mxCell id="AqKUAGnMmuNkZBFJkzyz-15" value="hash exists" style="rhombus;whiteSpace=wrap;html=1;fillColor=none;fontColor=#FFFFFF;strokeColor=#B09500;rounded=1;labelBackgroundColor=none;sketch=1;curveFitting=1;jiggle=2;spacing=16;spacingTop=0;" parent="1" vertex="1">
          <mxGeometry x="472.19" y="401" width="95.62" height="90" as="geometry" />
        </mxCell>
        <mxCell id="AqKUAGnMmuNkZBFJkzyz-16" value="continue" style="rounded=1;whiteSpace=wrap;html=1;sketch=1;curveFitting=1;jiggle=2;" parent="1" vertex="1">
          <mxGeometry x="630" y="426.5" width="70" height="39" as="geometry" />
        </mxCell>
        <mxCell id="AqKUAGnMmuNkZBFJkzyz-26" style="rounded=1;orthogonalLoop=1;jettySize=auto;html=1;exitX=1;exitY=0.5;exitDx=0;exitDy=0;entryX=0;entryY=1;entryDx=0;entryDy=0;sketch=1;curveFitting=1;jiggle=2;" parent="1" source="AqKUAGnMmuNkZBFJkzyz-16" target="AqKUAGnMmuNkZBFJkzyz-7" edge="1">
          <mxGeometry relative="1" as="geometry">
            <mxPoint x="940" y="446" as="sourcePoint" />
            <Array as="points">
              <mxPoint x="750" y="445" />
              <mxPoint x="750" y="665" />
              <mxPoint x="220" y="665" />
            </Array>
          </mxGeometry>
        </mxCell>
        <mxCell id="AqKUAGnMmuNkZBFJkzyz-25" style="rounded=1;orthogonalLoop=1;jettySize=auto;html=1;exitX=0;exitY=0.5;exitDx=0;exitDy=0;entryX=0;entryY=1;entryDx=0;entryDy=0;sketch=1;curveFitting=1;jiggle=2;" parent="1" source="AqKUAGnMmuNkZBFJkzyz-23" target="AqKUAGnMmuNkZBFJkzyz-7" edge="1">
          <mxGeometry relative="1" as="geometry">
            <Array as="points">
              <mxPoint x="280" y="575" />
            </Array>
          </mxGeometry>
        </mxCell>
        <mxCell id="AqKUAGnMmuNkZBFJkzyz-23" value="add to unique records" style="rounded=1;whiteSpace=wrap;html=1;sketch=1;curveFitting=1;jiggle=2;" parent="1" vertex="1">
          <mxGeometry x="470" y="546" width="100" height="60" as="geometry" />
        </mxCell>
        <mxCell id="AqKUAGnMmuNkZBFJkzyz-28" style="edgeStyle=orthogonalEdgeStyle;rounded=0;orthogonalLoop=1;jettySize=auto;html=1;exitX=0.5;exitY=1;exitDx=0;exitDy=0;entryX=0.5;entryY=0;entryDx=0;entryDy=0;sketch=1;curveFitting=1;jiggle=2;" parent="1" source="AqKUAGnMmuNkZBFJkzyz-27" target="AqKUAGnMmuNkZBFJkzyz-15" edge="1">
          <mxGeometry relative="1" as="geometry" />
        </mxCell>
        <mxCell id="AqKUAGnMmuNkZBFJkzyz-27" value="hash current file" style="rounded=1;whiteSpace=wrap;html=1;sketch=1;curveFitting=1;jiggle=2;" parent="1" vertex="1">
          <mxGeometry x="478.25" y="315" width="83.5" height="40" as="geometry" />
        </mxCell>
        <mxCell id="JZ4hTgmu9QeBeIveG_Wp-11" style="rounded=1;orthogonalLoop=1;jettySize=auto;html=1;exitX=0;exitY=0.5;exitDx=0;exitDy=0;entryX=0;entryY=1;entryDx=0;entryDy=0;sketch=1;curveFitting=1;jiggle=2;" edge="1" parent="1" source="JZ4hTgmu9QeBeIveG_Wp-13">
          <mxGeometry relative="1" as="geometry">
            <mxPoint x="1330" y="405" as="targetPoint" />
            <Array as="points">
              <mxPoint x="1160" y="636" />
            </Array>
          </mxGeometry>
        </mxCell>
        <mxCell id="JZ4hTgmu9QeBeIveG_Wp-16" style="rounded=1;orthogonalLoop=1;jettySize=auto;html=1;exitX=0;exitY=0.5;exitDx=0;exitDy=0;entryX=0;entryY=1;entryDx=0;entryDy=0;sketch=1;curveFitting=1;jiggle=2;" edge="1" parent="1" source="JZ4hTgmu9QeBeIveG_Wp-14">
          <mxGeometry relative="1" as="geometry">
            <mxPoint x="1330" y="405" as="targetPoint" />
            <Array as="points">
              <mxPoint x="1070" y="760" />
            </Array>
          </mxGeometry>
        </mxCell>
        <mxCell id="JZ4hTgmu9QeBeIveG_Wp-20" style="edgeStyle=orthogonalEdgeStyle;rounded=0;orthogonalLoop=1;jettySize=auto;html=1;exitX=1;exitY=0.5;exitDx=0;exitDy=0;entryX=0;entryY=0.5;entryDx=0;entryDy=0;sketch=1;curveFitting=1;jiggle=2;" edge="1" parent="1" source="JZ4hTgmu9QeBeIveG_Wp-21" target="JZ4hTgmu9QeBeIveG_Wp-26">
          <mxGeometry relative="1" as="geometry" />
        </mxCell>
        <mxCell id="JZ4hTgmu9QeBeIveG_Wp-21" value="loop over unique files" style="rounded=1;whiteSpace=wrap;html=1;sketch=1;curveFitting=1;jiggle=2;strokeColor=#007FFF;" vertex="1" parent="1">
          <mxGeometry x="160" y="1237.5" width="90" height="45" as="geometry" />
        </mxCell>
        <mxCell id="JZ4hTgmu9QeBeIveG_Wp-22" style="edgeStyle=orthogonalEdgeStyle;rounded=0;orthogonalLoop=1;jettySize=auto;html=1;exitX=1;exitY=0.5;exitDx=0;exitDy=0;entryX=0;entryY=0.5;entryDx=0;entryDy=0;sketch=1;curveFitting=1;jiggle=2;" edge="1" parent="1" source="JZ4hTgmu9QeBeIveG_Wp-26" target="JZ4hTgmu9QeBeIveG_Wp-30">
          <mxGeometry relative="1" as="geometry">
            <mxPoint x="450" y="1260" as="targetPoint" />
          </mxGeometry>
        </mxCell>
        <mxCell id="JZ4hTgmu9QeBeIveG_Wp-23" value="NO" style="edgeLabel;html=1;align=center;verticalAlign=middle;resizable=0;points=[];" vertex="1" connectable="0" parent="JZ4hTgmu9QeBeIveG_Wp-22">
          <mxGeometry x="-0.2545" y="-1" relative="1" as="geometry">
            <mxPoint y="-1" as="offset" />
          </mxGeometry>
        </mxCell>
        <mxCell id="JZ4hTgmu9QeBeIveG_Wp-24" style="edgeStyle=orthogonalEdgeStyle;rounded=0;orthogonalLoop=1;jettySize=auto;html=1;exitX=0.5;exitY=1;exitDx=0;exitDy=0;entryX=0.5;entryY=0;entryDx=0;entryDy=0;sketch=1;curveFitting=1;jiggle=2;" edge="1" parent="1" source="JZ4hTgmu9QeBeIveG_Wp-26" target="JZ4hTgmu9QeBeIveG_Wp-28">
          <mxGeometry relative="1" as="geometry" />
        </mxCell>
        <mxCell id="JZ4hTgmu9QeBeIveG_Wp-25" value="YES" style="edgeLabel;html=1;align=center;verticalAlign=middle;resizable=0;points=[];" vertex="1" connectable="0" parent="JZ4hTgmu9QeBeIveG_Wp-24">
          <mxGeometry x="-0.2706" y="-2" relative="1" as="geometry">
            <mxPoint x="2" y="5" as="offset" />
          </mxGeometry>
        </mxCell>
        <mxCell id="JZ4hTgmu9QeBeIveG_Wp-26" value="hasNext" style="rhombus;whiteSpace=wrap;html=1;fillColor=none;fontColor=#FFFFFF;strokeColor=#B09500;rounded=1;sketch=1;curveFitting=1;jiggle=2;" vertex="1" parent="1">
          <mxGeometry x="310" y="1220" width="80" height="80" as="geometry" />
        </mxCell>
        <mxCell id="JZ4hTgmu9QeBeIveG_Wp-27" style="rounded=1;orthogonalLoop=1;jettySize=auto;html=1;exitX=0;exitY=0.5;exitDx=0;exitDy=0;entryX=0;entryY=1;entryDx=0;entryDy=0;sketch=1;curveFitting=1;jiggle=2;" edge="1" parent="1" source="JZ4hTgmu9QeBeIveG_Wp-28" target="JZ4hTgmu9QeBeIveG_Wp-26">
          <mxGeometry relative="1" as="geometry">
            <Array as="points">
              <mxPoint x="260" y="1385" />
            </Array>
          </mxGeometry>
        </mxCell>
        <mxCell id="JZ4hTgmu9QeBeIveG_Wp-28" value="move file to UniqueDir" style="rounded=1;whiteSpace=wrap;html=1;sketch=1;curveFitting=1;jiggle=2;" vertex="1" parent="1">
          <mxGeometry x="305" y="1355" width="90" height="60" as="geometry" />
        </mxCell>
        <mxCell id="JZ4hTgmu9QeBeIveG_Wp-29" style="edgeStyle=orthogonalEdgeStyle;rounded=0;orthogonalLoop=1;jettySize=auto;html=1;exitX=1;exitY=0.5;exitDx=0;exitDy=0;entryX=0;entryY=0.5;entryDx=0;entryDy=0;" edge="1" parent="1" source="JZ4hTgmu9QeBeIveG_Wp-30" target="JZ4hTgmu9QeBeIveG_Wp-31">
          <mxGeometry relative="1" as="geometry" />
        </mxCell>
        <mxCell id="JZ4hTgmu9QeBeIveG_Wp-30" value="display report" style="rounded=1;whiteSpace=wrap;html=1;sketch=1;curveFitting=1;jiggle=2;" vertex="1" parent="1">
          <mxGeometry x="460" y="1242.5" width="90" height="35" as="geometry" />
        </mxCell>
        <mxCell id="JZ4hTgmu9QeBeIveG_Wp-31" value="" style="ellipse;html=1;shape=endState;fillColor=#000000;strokeColor=#ff0000;sketch=1;curveFitting=1;jiggle=2;" vertex="1" parent="1">
          <mxGeometry x="600" y="1245" width="30" height="30" as="geometry" />
        </mxCell>
        <mxCell id="JZ4hTgmu9QeBeIveG_Wp-32" value="" style="ellipse;html=1;shape=startState;fillColor=#000000;strokeColor=#ff0000;sketch=1;curveFitting=1;jiggle=2;" vertex="1" parent="1">
          <mxGeometry x="90" y="1245" width="30" height="30" as="geometry" />
        </mxCell>
        <mxCell id="JZ4hTgmu9QeBeIveG_Wp-33" value="" style="edgeStyle=orthogonalEdgeStyle;html=1;verticalAlign=bottom;endArrow=open;endSize=8;strokeColor=#ff0000;rounded=0;entryX=0;entryY=0.5;entryDx=0;entryDy=0;sketch=1;curveFitting=1;jiggle=2;" edge="1" source="JZ4hTgmu9QeBeIveG_Wp-32" parent="1" target="JZ4hTgmu9QeBeIveG_Wp-21">
          <mxGeometry relative="1" as="geometry">
            <mxPoint x="105" y="1328" as="targetPoint" />
          </mxGeometry>
        </mxCell>
        <mxCell id="JZ4hTgmu9QeBeIveG_Wp-34" value="" style="ellipse;html=1;shape=endState;fillColor=#000000;strokeColor=#ff0000;sketch=1;curveFitting=1;jiggle=2;" vertex="1" parent="1">
          <mxGeometry x="730" y="185" width="30" height="30" as="geometry" />
        </mxCell>
        <mxCell id="JZ4hTgmu9QeBeIveG_Wp-43" value="1" style="text;html=1;strokeColor=none;fillColor=none;align=center;verticalAlign=middle;whiteSpace=wrap;rounded=0;fontSize=40;glass=0;shadow=0;" vertex="1" parent="1">
          <mxGeometry x="10" y="175" width="70" height="50" as="geometry" />
        </mxCell>
        <mxCell id="JZ4hTgmu9QeBeIveG_Wp-44" value="2" style="text;html=1;strokeColor=none;fillColor=none;align=center;verticalAlign=middle;whiteSpace=wrap;rounded=0;fontSize=40;glass=0;shadow=0;" vertex="1" parent="1">
          <mxGeometry x="10" y="1235" width="70" height="50" as="geometry" />
        </mxCell>
      </root>
    </mxGraphModel>
  </diagram>
  <diagram id="On_qJvXw2pPv9lpKG2Ir" name="Architecture">
    <mxGraphModel dx="933" dy="1020" grid="1" gridSize="10" guides="1" tooltips="1" connect="1" arrows="1" fold="1" page="1" pageScale="1" pageWidth="850" pageHeight="1100" math="0" shadow="0">
      <root>
        <mxCell id="0" />
        <mxCell id="1" parent="0" />
        <mxCell id="BZls4xsF4L4ZFghdIzEd-2" value="RunConfig" style="swimlane;fontStyle=0;childLayout=stackLayout;horizontal=1;startSize=26;fillColor=none;horizontalStack=0;resizeParent=1;resizeParentMax=0;resizeLast=0;collapsible=1;marginBottom=0;whiteSpace=wrap;html=1;rounded=1;swimlaneLine=1;sketch=1;curveFitting=1;jiggle=2;strokeColor=#425E26;" vertex="1" parent="1">
          <mxGeometry x="130" y="260" width="140" height="78" as="geometry" />
        </mxCell>
        <mxCell id="BZls4xsF4L4ZFghdIzEd-3" value="+ UniqueDir: string" style="text;strokeColor=none;fillColor=none;align=left;verticalAlign=top;spacingLeft=4;spacingRight=4;overflow=hidden;rotatable=0;points=[[0,0.5],[1,0.5]];portConstraint=eastwest;whiteSpace=wrap;html=1;" vertex="1" parent="BZls4xsF4L4ZFghdIzEd-2">
          <mxGeometry y="26" width="140" height="26" as="geometry" />
        </mxCell>
        <mxCell id="BZls4xsF4L4ZFghdIzEd-4" value="+ SearchDirs: []string" style="text;strokeColor=none;fillColor=none;align=left;verticalAlign=top;spacingLeft=4;spacingRight=4;overflow=hidden;rotatable=0;points=[[0,0.5],[1,0.5]];portConstraint=eastwest;whiteSpace=wrap;html=1;" vertex="1" parent="BZls4xsF4L4ZFghdIzEd-2">
          <mxGeometry y="52" width="140" height="26" as="geometry" />
        </mxCell>
        <mxCell id="BZls4xsF4L4ZFghdIzEd-6" value="RunReport" style="swimlane;fontStyle=0;childLayout=stackLayout;horizontal=1;startSize=26;fillColor=none;horizontalStack=0;resizeParent=1;resizeParentMax=0;resizeLast=0;collapsible=1;marginBottom=0;whiteSpace=wrap;html=1;rounded=1;swimlaneLine=1;sketch=1;curveFitting=1;jiggle=2;strokeColor=#425E26;" vertex="1" parent="1">
          <mxGeometry x="130" y="360" width="200" height="78" as="geometry" />
        </mxCell>
        <mxCell id="BZls4xsF4L4ZFghdIzEd-7" value="+ UniqueFiles: map[string]string" style="text;strokeColor=none;fillColor=none;align=left;verticalAlign=top;spacingLeft=4;spacingRight=4;overflow=hidden;rotatable=0;points=[[0,0.5],[1,0.5]];portConstraint=eastwest;whiteSpace=wrap;html=1;" vertex="1" parent="BZls4xsF4L4ZFghdIzEd-6">
          <mxGeometry y="26" width="200" height="26" as="geometry" />
        </mxCell>
        <mxCell id="BZls4xsF4L4ZFghdIzEd-8" value="+ DuplicateFiles: map[string][]string" style="text;strokeColor=none;fillColor=none;align=left;verticalAlign=top;spacingLeft=4;spacingRight=4;overflow=hidden;rotatable=0;points=[[0,0.5],[1,0.5]];portConstraint=eastwest;whiteSpace=wrap;html=1;" vertex="1" parent="BZls4xsF4L4ZFghdIzEd-6">
          <mxGeometry y="52" width="200" height="26" as="geometry" />
        </mxCell>
      </root>
    </mxGraphModel>
  </diagram>
  <diagram id="C4o-jRy7zwONl38z5tEh" name="ERD">
    <mxGraphModel dx="933" dy="1020" grid="1" gridSize="10" guides="1" tooltips="1" connect="1" arrows="1" fold="1" page="1" pageScale="1" pageWidth="850" pageHeight="1100" math="0" shadow="0">
      <root>
        <mxCell id="0" />
        <mxCell id="1" parent="0" />
      </root>
    </mxGraphModel>
  </diagram>
</mxfile>
